<?xml version="1.0" encoding="UTF-8" standalone="no"?>
<!-- Created with Inkscape (http://www.inkscape.org/) -->

<svg
   width="93.132927mm"
   height="24.685349mm"
   viewBox="0 0 93.132927 24.685349"
   version="1.1"
   id="svg1"
   inkscape:version="1.3 (0e150ed6c4, 2023-07-21)"
   sodipodi:docname="Biblical.svg"
   xmlns:inkscape="http://www.inkscape.org/namespaces/inkscape"
   xmlns:sodipodi="http://sodipodi.sourceforge.net/DTD/sodipodi-0.dtd"
   xmlns:xlink="http://www.w3.org/1999/xlink"
   xmlns="http://www.w3.org/2000/svg"
   xmlns:svg="http://www.w3.org/2000/svg">
  <sodipodi:namedview
     id="namedview1"
     pagecolor="#505050"
     bordercolor="#eeeeee"
     borderopacity="1"
     inkscape:showpageshadow="0"
     inkscape:pageopacity="0"
     inkscape:pagecheckerboard="0"
     inkscape:deskcolor="#505050"
     inkscape:document-units="mm"
     inkscape:zoom="0.70710678"
     inkscape:cx="186.67619"
     inkscape:cy="187.3833"
     inkscape:window-width="1858"
     inkscape:window-height="1057"
     inkscape:window-x="54"
     inkscape:window-y="-8"
     inkscape:window-maximized="1"
     inkscape:current-layer="layer1" />
  <defs
     id="defs1">
    <linearGradient
       id="linearGradient15"
       inkscape:collect="always">
      <stop
         style="stop-color:#ac3e5e;stop-opacity:1;"
         offset="0"
         id="stop13" />
      <stop
         style="stop-color:#ac3e5e;stop-opacity:0;"
         offset="1"
         id="stop15" />
    </linearGradient>
    <linearGradient
       id="linearGradient12"
       inkscape:collect="always">
      <stop
         style="stop-color:#56349b;stop-opacity:1;"
         offset="0"
         id="stop10" />
      <stop
         style="stop-color:#673fbd;stop-opacity:0;"
         offset="1"
         id="stop12" />
    </linearGradient>
    <linearGradient
       id="linearGradient7"
       inkscape:collect="always">
      <stop
         style="stop-color:#7851ff;stop-opacity:1;"
         offset="0"
         id="stop7" />
      <stop
         style="stop-color:#ff5757;stop-opacity:1;"
         offset="1"
         id="stop8" />
    </linearGradient>
    <linearGradient
       id="linearGradient4"
       inkscape:collect="always">
      <stop
         style="stop-color:#ac3e5e;stop-opacity:1;"
         offset="0.07885305"
         id="stop4" />
      <stop
         style="stop-color:#ac3e5e;stop-opacity:0;"
         offset="0.7455197"
         id="stop5" />
    </linearGradient>
    <rect
       x="26.817877"
       y="176.23177"
       width="606.59485"
       height="128.98122"
       id="rect1" />
    <linearGradient
       inkscape:collect="always"
       xlink:href="#linearGradient15"
       id="linearGradient26"
       gradientUnits="userSpaceOnUse"
       gradientTransform="matrix(0.41267166,0,0,0.41267166,-5.8848446,27.704288)"
       x1="34.591152"
       y1="143.10344"
       x2="51.337193"
       y2="143.10344" />
    <linearGradient
       inkscape:collect="always"
       xlink:href="#linearGradient12"
       id="linearGradient27"
       gradientUnits="userSpaceOnUse"
       gradientTransform="matrix(0.41267166,0,0,0.41267166,-5.8848446,7.6286238)"
       x1="34.591152"
       y1="143.10344"
       x2="51.337193"
       y2="143.10344" />
    <linearGradient
       inkscape:collect="always"
       xlink:href="#linearGradient4"
       id="linearGradient28"
       gradientUnits="userSpaceOnUse"
       gradientTransform="matrix(0.41267164,0,0,0.41267164,-10.824802,7.6286238)"
       x1="79.878571"
       y1="162.21094"
       x2="84.828285"
       y2="175.00406" />
    <linearGradient
       inkscape:collect="always"
       xlink:href="#linearGradient7"
       id="linearGradient29"
       gradientUnits="userSpaceOnUse"
       gradientTransform="matrix(0.41267164,0,0,0.41267164,-10.824802,7.6286238)"
       x1="36.092644"
       y1="143.63048"
       x2="75.538055"
       y2="185.51266" />
    <linearGradient
       inkscape:collect="always"
       xlink:href="#linearGradient7"
       id="linearGradient30"
       x1="273.47916"
       y1="187.64833"
       x2="36.799412"
       y2="148.66579"
       gradientUnits="userSpaceOnUse" />
  </defs>
  <g
     inkscape:label="Layer 1"
     inkscape:groupmode="layer"
     id="layer1"
     transform="translate(-2.9891163,-64.506765)">
    <text
       xml:space="preserve"
       transform="matrix(0.26876041,0,0,0.26876041,17.61181,36.002522)"
       id="text1"
       style="font-size:85.3333px;line-height:0;font-family:Bronova;-inkscape-font-specification:Bronova;letter-spacing:0px;word-spacing:1.26px;white-space:pre;shape-inside:url(#rect1);display:inline;fill:url(#linearGradient30);fill-opacity:1;stroke:#000000;stroke-width:4.15748"><tspan
         x="26.818359"
         y="197.56575"
         id="tspan3"><tspan
           style="font-weight:bold;-inkscape-font-specification:'Bronova Bold';stroke:none"
           id="tspan2">iblical</tspan></tspan></text>
    <path
       style="font-weight:bold;font-size:85.3333px;line-height:0;font-family:Bronova;-inkscape-font-specification:'Bronova Bold';letter-spacing:0px;word-spacing:1.26px;white-space:pre;fill:url(#linearGradient29);fill-opacity:1;stroke-width:1.71567"
       d="M 2.9891162,89.158405 V 64.508162 H 14.011296 q 0.633864,0 1.549444,0.0352 0.91558,0.0352 1.90159,0.246501 1.021225,0.176075 2.007234,0.598651 1.021225,0.422576 1.83116,1.197296 0.809938,0.774725 1.302942,1.972022 0.493005,1.197297 0.493005,2.958026 0,1.162083 -0.387361,2.324167 -0.387361,1.12687 -1.197297,1.795947 1.408585,0.915582 2.077663,2.500237 0.704293,1.549446 0.704293,3.556681 0,1.267727 -0.387362,2.605881 -0.38736,1.338158 -1.443799,2.429811 -1.056439,1.056439 -2.922815,1.76073 -1.866375,0.669081 -4.824404,0.669081 z M 14.57473,84.580503 q 2.711527,0 3.767966,-0.633864 1.091654,-0.669077 1.091654,-2.324167 0,-1.05644 -0.316932,-1.655086 -0.281717,-0.633864 -0.880366,-0.950795 -0.598649,-0.316932 -1.549444,-0.387363 -0.950795,-0.105644 -2.253737,-0.105644 l -6.514707,-0.0352 v 6.092132 z m 0.03521,-10.634822 q 2.042449,0 2.817171,-0.528219 0.774722,-0.52822 0.774722,-1.901591 0,-1.373367 -0.880366,-1.901587 -0.84515,-0.52822 -3.028458,-0.52822 H 7.9191662 v 4.859617 z"
       id="path22"
       aria-label="B" />
    <path
       id="path23"
       style="font-weight:bold;font-size:85.3333px;line-height:0;font-family:Bronova;-inkscape-font-specification:'Bronova Bold';letter-spacing:0px;word-spacing:1.26px;white-space:pre;fill:#ff5151;fill-opacity:1;stroke-width:1.71567"
       d="m 24.194684,80.251932 c 0.02201,0.152964 0.04032,0.308236 0.05499,0.465968 0.01467,0.157735 0.02605,0.317707 0.03339,0.480209 -0.01467,-0.324999 -0.04436,-0.640251 -0.08838,-0.946177 z" />
    <path
       id="path24"
       style="font-weight:bold;font-size:85.3333px;line-height:0;font-family:Bronova;-inkscape-font-specification:'Bronova Bold';letter-spacing:0px;word-spacing:1.26px;white-space:pre;fill:url(#linearGradient28);fill-opacity:1;stroke-width:1.71567"
       d="m 21.511799,75.635935 -4.213367,3.075205 c 0.361261,0.06789 0.677894,0.167276 0.938813,0.305409 0.3991,0.211284 0.692573,0.528022 0.880383,0.950598 0.211288,0.399094 0.316703,0.950907 0.316703,1.655197 0,1.103393 -0.363749,1.878395 -1.091518,2.324447 -0.704292,0.422576 -1.960338,0.633897 -3.76802,0.633897 H 7.9191366 7.9186454 l -0.0039,4.577696 h 6.8009966 c 1.972017,0 3.579935,-0.223193 4.824184,-0.66925 1.088718,-0.410835 1.970747,-0.911423 2.64606,-1.502001 0.09647,-0.08437 0.188893,-0.170726 0.27693,-0.258766 0.704292,-0.727767 1.185333,-1.537416 1.443573,-2.429521 0.06456,-0.223025 0.120979,-0.444737 0.169399,-0.664831 0.04842,-0.22009 0.089,-0.438831 0.12128,-0.655991 0.03228,-0.217156 0.05653,-0.432439 0.07267,-0.64666 0.01614,-0.214222 0.02406,-0.427025 0.02406,-0.638313 0,-0.167272 -0.0035,-0.33244 -0.01081,-0.494942 -0.0073,-0.162502 -0.01872,-0.322474 -0.03339,-0.480209 -0.01467,-0.157732 -0.03299,-0.313004 -0.05499,-0.465968 -0.110045,-0.764817 -0.31147,-1.470164 -0.604925,-2.115768 -0.446052,-1.056435 -1.138903,-1.889842 -2.077959,-2.500229 z" />
    <path
       style="font-weight:bold;font-size:85.3333px;line-height:0;font-family:Bronova;-inkscape-font-specification:'Bronova Bold';letter-spacing:0px;word-spacing:1.26px;white-space:pre;fill:url(#linearGradient27);fill-opacity:1;stroke-width:1.71567"
       d="m 7.9290736,64.508162 9.3975404,-0.0014 -0.0047,4.578233 -9.4020526,4.14e-4 z"
       id="path25"
       aria-label="B"
       sodipodi:nodetypes="ccccc" />
    <path
       style="font-weight:bold;font-size:85.3333px;line-height:0;font-family:Bronova;-inkscape-font-specification:'Bronova Bold';letter-spacing:0px;word-spacing:1.26px;white-space:pre;fill:url(#linearGradient26);fill-opacity:1;stroke-width:1.71567"
       d="m 7.9290736,84.583827 9.3975404,-0.0014 -0.0047,4.578233 -9.4020526,4.15e-4 z"
       id="path26"
       aria-label="B"
       sodipodi:nodetypes="ccccc" />
  </g>
</svg>
